<?xml version="1.0" encoding="utf-8"?>
<!-- Generator: Adobe Illustrator 24.3.0, SVG Export Plug-In . SVG Version: 6.00 Build 0)  -->
<svg version="1.1" id="Layer_1" xmlns="http://www.w3.org/2000/svg" xmlns:xlink="http://www.w3.org/1999/xlink" x="0px" y="0px"
	 viewBox="0 0 868 2583" style="enable-background:new 0 0 868 2583;" xml:space="preserve">
<style type="text/css">
	.st0{fill:#F9BD6A;}
	.st1{fill:#9DD1BC;}
	.st2{fill:none;}
	.st3{font-family:'Montserrat-Regular';}
	.st4{font-size:26px;}
	.st5{font-family:'NotoSansImperialAramaic-Regular';}
	.st6{fill:#1B6889;}
	.st7{font-family:'Montserrat-SemiBold';}
	.st8{font-size:40px;}
	.st9{font-size:32.9126px;}
	.st10{font-family:'DMSerifDisplay-Regular';}
	.st11{font-size:45px;}
	.st12{fill:none;stroke:#000000;stroke-miterlimit:10;}
	.st13{font-size:22px;}
	.st14{clip-path:url(#SVGID_2_);}
	.st15{clip-path:url(#SVGID_4_);}
	.st16{fill:#202020;}
	.st17{fill:#3CB28E;}
	.st18{fill:#84C1AB;}
	.st19{fill:#639FAD;}
	.st20{fill:#97C1CE;}
</style>
<g>
	<path class="st0" d="M751.1,1520c-1.2,0-2.4,0.1-3.7,0.1c-13,0.2-26.1-0.3-39.1-0.6c-24-0.5-48-0.7-72-0.5
		c-37.3,0.2-84.2-3.5-120.9-4.6c-25.6-0.7-73.8-16.9-83.8,17.2c-1.6,5.3-2.3,10.9-1.1,16.2c4.9,21.2,33.2,21.5,50.5,22.3
		c26.6,1.2,53.1,3.5,79.6,4.2c36.8,1,73.5,3.9,110.1,7.7c23.3,2.4,46.9,5.9,70.4,5.4c26.2-0.6,50.3-11,62.4-35.9
		c3.1-6.5,5-14.4,1.4-20.6C795.3,1514.4,766.7,1519.5,751.1,1520z"/>
</g>
<circle class="st1" cx="268.8" cy="743.2" r="36.8"/>
<circle class="st1" cx="346.3" cy="786.8" r="36.8"/>
<circle class="st1" cx="364.2" cy="889.8" r="36.8"/>
<path class="st0" d="M768,1417c-7.5-7.7-24.8-6-35,3c-6.4,5.6-13.4,17-9,28c4.7,11.6,19.6,16.2,30,13
	C771.4,1455.6,778.1,1427.4,768,1417z"/>
<rect x="490" y="690.9" class="st2" width="376" height="155.1"/>
<text transform="matrix(1 0 0 1 490.0498 713.1597)"><tspan x="0" y="0" class="st3 st4">Inhalación</tspan><tspan x="136.3" y="0" class="st5 st4"> </tspan><tspan x="143" y="0" class="st3 st4">respiratoria</tspan><tspan x="0" y="60" class="st3 st4">Al</tspan><tspan x="25.6" y="60" class="st5 st4"> </tspan><tspan x="32.4" y="60" class="st3 st4">alimentarse</tspan><tspan x="0" y="120" class="st3 st4">Contacto</tspan><tspan x="120" y="120" class="st5 st4"> </tspan><tspan x="126.7" y="120" class="st3 st4">con</tspan><tspan x="175.3" y="120" class="st5 st4"> </tspan><tspan x="182" y="120" class="st3 st4">la</tspan><tspan x="204.4" y="120" class="st5 st4"> </tspan><tspan x="211.1" y="120" class="st3 st4">piel</tspan></text>
<g>
	<rect x="490" y="587" class="st2" width="317" height="88"/>
	<text transform="matrix(1 0 0 1 490 616.6797)"><tspan x="0" y="0" class="st6 st7 st8">FUENTES DE </tspan><tspan x="0" y="42" class="st6 st7 st8">Exposición</tspan></text>
</g>
<g>
	<rect x="170" y="380" class="st2" width="565" height="73"/>
	<text transform="matrix(1 0 0 1 189.9673 399.2915)"><tspan x="0" y="0" class="st3 st4">El riesgo de uso depende de la toxicidad </tspan><tspan x="-19.7" y="31.2" class="st3 st4">del pesticida, y la duración de la exposición. </tspan></text>
</g>
<g>
	<rect x="24.5" y="464.9" class="st2" width="819" height="45.1"/>
	<text transform="matrix(1 0 0 1 129.2671 492.8496)"><tspan x="0" y="0" class="st7 st9">Riesgo = </tspan><tspan x="168" y="0" class="st3 st9">Toxicidad x Exposición</tspan></text>
</g>
<rect x="76.5" y="198.9" class="st2" width="715" height="96.1"/>
<text transform="matrix(1 0 0 1 93.3014 218.1694)"><tspan x="0" y="0" class="st3 st4">Pueden tener efectos perjudiciales para la salud, por </tspan><tspan x="7.6" y="31.2" class="st3 st4">ejemplo, provocar cáncer o acarrear consecuencias </tspan><tspan x="-14" y="62.4" class="st3 st4">para los sistemas reproductivo, inmunitario o nervioso.</tspan></text>
<rect x="152.3" y="118" class="st2" width="563.5" height="42"/>
<text transform="matrix(1 0 0 1 192.8051 149.5444)" class="st10 st11">Riesgo en el ser humano</text>
<g>
	<path class="st12" d="M724,1175.3c0,55-27.2,103.6-68.8,133.3c-26.7,19-59.4,30.2-94.7,30.2c-90.3,0-163.5-73.2-163.5-163.5
		s73.2-163.5,163.5-163.5S724,1085.1,724,1175.3z"/>
	<path class="st0" d="M592.2,1137.3c3.5-2.9,2.3-5.6,7.2-12.7c2.7-3.8,4.6-5.2,6.3-7.2c8.4-9.6,6.9-25.1,6.3-30.8
		c-0.5-4.9-1.7-17.4-10.9-28.1c-13.7-16-35-16.2-44.4-16.3c-10.2-0.1-32.1-0.3-46.2,16.3c-7.7,9.1-14.5,25-9.1,38.9
		c4,10.2,13.4,16.5,17.2,19c3.6,2.4,7.7,5.1,13.6,6.3c12.3,2.6,18.3-4,23.5,0c5.2,4,1.3,12.3,7.2,16.3c2,1.3,5.6,1.2,12.7,0.9
		C585,1139.6,589.6,1139.5,592.2,1137.3z"/>
	<path class="st0" d="M599.8,1304.1c1.2-2.3,2.2-4.8,2.9-7.5c2.2-8.6,1.7-17.5,1-26.3c-0.9-12.2-1-24.4,0.1-36.7
		c1.1-12.2,3-24.4-3.5-35.6c-0.9-1.5-8-25.6-22.6-26.3c-23.6-1.1-33.9,23.8-38.6,43c-2.5,10.2-3.8,20.5-5,30.9
		c-1.9,18.1-6,36.9-2.7,55.1c1,5.5,2.9,10.9,6.4,15.1c4.9,5.7,12.4,8.6,19.9,9C573.8,1325.8,592.1,1318.8,599.8,1304.1z"/>
</g>
<g>
	<g>
		<g>
			<rect x="195.5" y="2157.5" class="st2" width="207" height="37"/>
			<text transform="matrix(1 0 0 1 195.5251 2176.7915)" class="st7 st4">Boca</text>
		</g>
		<rect x="195.5" y="2188.8" class="st2" width="468" height="103.7"/>
		<text transform="matrix(1 0 0 1 195.5249 2208.1416)"><tspan x="0" y="0" class="st3 st4">Los niños pequeños son más </tspan><tspan x="0" y="31.2" class="st3 st4">propensos a poner sus dedos, </tspan><tspan x="0" y="62.4" class="st3 st4">juguetes y otros objetos a la boca.</tspan></text>
	</g>
	<g>
		<g>
			<rect x="195.5" y="2328" class="st2" width="100" height="37"/>
			<text transform="matrix(1 0 0 1 195.5251 2347.2915)" class="st7 st4">Suelo</text>
		</g>
		<rect x="195.5" y="2360.3" class="st2" width="436" height="87.7"/>
		<text transform="matrix(1 0 0 1 195.5249 2379.6416)"><tspan x="0" y="0" class="st3 st4">Los bebes y niños suelen pasar </tspan><tspan x="0" y="31.2" class="st3 st4">en el suelo, donde los pesticidas </tspan><tspan x="0" y="62.4" class="st3 st4">pueden haber sido aplicados.</tspan></text>
	</g>
	<g>
		<g>
			<rect x="195.5" y="1986" class="st2" width="317" height="37"/>
			<text transform="matrix(1 0 0 1 195.5251 2005.2915)" class="st7 st4">Cerebro y órganos</text>
		</g>
		<rect x="195.5" y="2020" class="st2" width="477" height="98"/>
		<text transform="matrix(1 0 0 1 195.5249 2039.292)"><tspan x="0" y="0" class="st3 st4">El cerebro, el sistema nervioso y los </tspan><tspan x="0" y="31.2" class="st3 st4">órganos de un bebé aún están en </tspan><tspan x="0" y="62.4" class="st3 st4">desarrollo después del nacimiento.</tspan></text>
	</g>
	<g>
		<rect x="195.5" y="1819" class="st2" width="386" height="108"/>
		<text transform="matrix(1 0 0 1 195.5258 1838.2915)"><tspan x="0" y="0" class="st3 st4">Esto se debe a la relación de </tspan><tspan x="0" y="31.2" class="st3 st4">su cuerpo y su peso, además </tspan><tspan x="0" y="62.4" class="st3 st4">de su comportamiento.</tspan></text>
		<g>
			<text transform="matrix(1 0 0 1 195.5247 1769.3525)"><tspan x="0" y="0" class="st6 st7 st13">Son más sensibles a efectos  </tspan><tspan x="0" y="26.4" class="st6 st7 st13">tóxicos de los pesticidas</tspan></text>
		</g>
	</g>
</g>
<line class="st12" x1="620.5" y1="1421.5" x2="594.5" y2="1335.5"/>
<line class="st12" x1="464" y1="764.5" x2="375.5" y2="764.5"/>
<polyline class="st12" points="388.7,862.3 420.5,825.5 463.9,825.5 "/>
<polyline class="st12" points="463,703.5 338.5,703.5 305.5,733.5 "/>
<g>
	<defs>
		<polygon id="SVGID_1_" points="84.5,1541.5 115.5,1568.5 189.5,1583 170.4,1541.5 237.8,1538.4 237.8,1574 354.7,1562.5 
			335.5,1532.5 868,1532.5 868,1601.3 30.5,1636.6 -29,1545.8 		"/>
	</defs>
	<clipPath id="SVGID_2_">
		<use xlink:href="#SVGID_1_"  style="overflow:visible;"/>
	</clipPath>
	<g class="st14">
		<path d="M30.5,1565.5c16.7,0.2,33.4-0.7,50-1.9c16.6-1.2,33.3-2.8,49.9-4.1c16.6-1.3,33.3-2.4,50-3l6.3-0.2l6.3-0.1
			c4.2-0.1,8.3-0.1,12.5-0.1l25,0.1c66.8-0.2,133.2-7.9,199.9-10.1c33.4-1.2,66.8-1,100.1,0.3c33.4,1.3,66.6,4.7,99.9,6.6
			c16.7,1,33.3,1.6,50,1.9c16.7,0.3,33.4,0.3,50,0.1c33.4-0.3,66.7-1.1,100.1-2.6c-33.3,1.7-66.7,2.7-100.1,3.1
			c-16.7,0.2-33.4,0.3-50.1,0c-16.7-0.3-33.4-0.9-50-1.8c-33.3-1.8-66.6-5.2-99.9-6.5c-33.3-1.2-66.7-1.4-100.1-0.1
			c-66.7,2.1-133.2,9.7-200,9.8l-25-0.1c-4.2-0.1-8.3,0-12.5,0.1l-6.3,0.1l-6.3,0.2c-16.7,0.5-33.3,1.6-50,2.8
			c-16.6,1.2-33.3,2.7-49.9,3.9C63.9,1565,47.2,1565.8,30.5,1565.5z"/>
	</g>
</g>
<g>
	<rect x="490" y="906.9" class="st2" width="177" height="92.1"/>
	<text transform="matrix(1 0 0 1 490.0369 940.8838)"><tspan x="0" y="0" class="st6 st7 st8">BEBES </tspan><tspan x="0" y="42" class="st6 st7 st8">Y NIÑOS</tspan></text>
</g>
<image style="overflow:visible;" width="1504" height="3496" xlink:href="hombre_manzana.png"  transform="matrix(-0.3077 0 0 0.3077 461.7438 561)">
</image>
<polyline class="st12" points="704,1599 704,1769.5 623.2,1769.5 "/>
<image style="overflow:visible;" width="1504" height="3496" xlink:href="hombre_manzana.png"  transform="matrix(-0.3078 0 0 0.3078 461.9188 561)">
</image>
<g id="TCfVcb_2_">
	
		<image style="overflow:visible;" width="1334" height="1422" id="TCfVcb_4_" xlink:href="4CD164B0D707E988.png"  transform="matrix(0.206 0 0 0.206 401 1028)">
	</image>
</g>
<image style="overflow:visible;" width="434" height="253" xlink:href="4CD164B0D707E98B.png"  transform="matrix(1 0 0 1 419 1331)">
</image>
<g>
	<defs>
		<polygon id="SVGID_7_" points="464,1313 464,1427.1 474,1455 437.1,1504.8 437.1,1543.5 404,1549 363,1549 292.5,1488.5 
			313.3,1334.5 356.1,1294.8 		"/>
	</defs>
	<clipPath id="SVGID_4_">
		<use xlink:href="#SVGID_7_"  style="overflow:visible;"/>
	</clipPath>
	<g transform="matrix(1 -3.725290e-09 3.725290e-09 1 0 0)" class="st15">
		
			<image style="overflow:visible;" width="3500" height="2975" xlink:href="plantas.png"  transform="matrix(0.1353 -7.217676e-03 7.217676e-03 0.1353 271.0664 1293.8076)">
		</image>
	</g>
</g>
</svg>
