<?xml version="1.0" encoding="utf-8"?>
<!-- Generator: Adobe Illustrator 24.3.0, SVG Export Plug-In . SVG Version: 6.00 Build 0)  -->
<svg version="1.1" id="Layer_1" xmlns="http://www.w3.org/2000/svg" xmlns:xlink="http://www.w3.org/1999/xlink" x="0px" y="0px"
	 viewBox="0 0 1920 1391" style="enable-background:new 0 0 1920 1391;" xml:space="preserve">
<style type="text/css">
	.st0{fill:#F9BD6A;}
	.st1{fill:#9DD1BC;}
	.st2{fill:none;stroke:#000000;stroke-miterlimit:10;}
	.st3{fill:none;}
	.st4{font-family:'Montserrat-Regular';}
	.st5{font-size:24px;}
	.st6{fill:#1B6889;}
	.st7{font-family:'Montserrat-SemiBold';}
	.st8{font-size:40px;}
	.st9{font-size:32.9126px;}
	.st10{font-family:'DMSerifDisplay-Regular';}
	.st11{font-size:45px;}
	.st12{clip-path:url(#SVGID_2_);}
	.st13{clip-path:url(#SVGID_4_);}
	.st14{fill:#202020;}
	.st15{fill:#3CB28E;}
	.st16{fill:#84C1AB;}
	.st17{fill:#639FAD;}
	.st18{fill:#97C1CE;}
</style>
<circle class="st1" cx="402.8" cy="454.2" r="36.8"/>
<circle class="st1" cx="480.3" cy="497.8" r="36.8"/>
<circle class="st1" cx="498.2" cy="600.8" r="36.8"/>
<path class="st0" d="M1265,1128c-7.5-7.7-24.8-6-35,3c-6.4,5.6-13.4,17-9,28c4.7,11.6,19.6,16.2,30,13
	C1268.4,1166.6,1275.1,1138.4,1265,1128z"/>
<g>
	<path class="st0" d="M1285,1234c-28.7,7.6-39.6,2.1-92,0c-78.8-3.2-74.8,8.5-107,0c-38.2-10.1-37.6-24.9-80-37
		c-27.4-7.8-67.8-19.4-94,2c-26.6,21.7-32.5,72.3-12,99c22.9,29.8,64.8,11.4,169,13c141.3,2.2,196.9,38.1,233,0
		c23.6-25,29.4-71.9,16-82C1311.4,1224,1302,1229.5,1285,1234z"/>
</g>
<rect x="488" y="740.9" class="st3" width="350" height="96.1"/>
<text transform="matrix(1 0 0 1 488.0493 758.6855)"><tspan x="0" y="0" class="st4 st5">El riesgo de uso depende de </tspan><tspan x="0" y="28.8" class="st4 st5">la toxicidad del pesticida, y la </tspan><tspan x="0" y="57.6" class="st4 st5">duración de la exposición. </tspan></text>
<rect x="697" y="414.9" class="st3" width="288" height="155.1"/>
<text transform="matrix(1 0 0 1 697.0493 432.6855)"><tspan x="0" y="0" class="st4 st5">Inhalación respiratoria</tspan><tspan x="0" y="60" class="st4 st5">Al alimentarse</tspan><tspan x="0" y="120" class="st4 st5">Contacto con la piel</tspan></text>
<g>
	<rect x="553" y="356" class="st3" width="571" height="42"/>
	<text transform="matrix(1 0 0 1 553 385.6797)" class="st6 st7 st8">FUENTES DE Exposición</text>
</g>
<g>
	<text transform="matrix(1 0 0 1 488.0494 878.8496)"><tspan x="0" y="0" class="st7 st9">Riesgo = </tspan><tspan x="0" y="39.5" class="st4 st9">Toxicidad x Exposición</tspan></text>
</g>
<rect x="1308" y="601" class="st3" width="492" height="58"/>
<text transform="matrix(1 0 0 1 1308.0498 618.8076)"><tspan x="0" y="0" class="st4 st5">Esto se debe a la relación de su cuerpo y </tspan><tspan x="0" y="28.8" class="st4 st5">su peso, además de su comportamiento.</tspan></text>
<g>
	<rect x="1308" y="535.9" class="st3" width="457" height="63.1"/>
	<text transform="matrix(1 0 0 1 1308.0498 553.6855)"><tspan x="0" y="0" class="st6 st7 st5">Son más sensibles a efectos </tspan><tspan x="0" y="28.8" class="st6 st7 st5">tóxicos de los pesticidas</tspan></text>
</g>
<rect x="633" y="135.9" class="st3" width="654" height="96.1"/>
<text transform="matrix(1 0 0 1 645.509 153.6855)"><tspan x="0" y="0" class="st4 st5">Pueden tener efectos perjudiciales para la salud, por </tspan><tspan x="7" y="28.8" class="st4 st5">ejemplo, provocar cáncer o acarrear consecuencias </tspan><tspan x="43.6" y="57.6" class="st4 st5">para los sistemas reproductivo, inmunitario o </tspan></text>
<rect x="637.8" y="76" class="st3" width="644.5" height="42"/>
<text transform="matrix(1 0 0 1 718.8051 107.5444)" class="st10 st11">Riesgo en el ser humano</text>
<line class="st2" x1="1134.5" y1="1123.5" x2="1164.5" y2="990.5"/>
<g>
	<g>
		<rect x="1377" y="902" class="st3" width="207" height="37"/>
		<text transform="matrix(1 0 0 1 1377.0498 919.8076)" class="st7 st5">Boca</text>
	</g>
	<rect x="1377" y="933.3" class="st3" width="423" height="78.7"/>
	<text transform="matrix(1 0 0 1 1377.0496 951.1572)"><tspan x="0" y="0" class="st4 st5">Los niños pequeños son más </tspan><tspan x="0" y="28.8" class="st4 st5">propensos a poner sus dedos, </tspan><tspan x="0" y="57.6" class="st4 st5">juguetes y otros objetos a la boca.</tspan></text>
</g>
<g>
	<g>
		<rect x="1377" y="1071" class="st3" width="100" height="37"/>
		<text transform="matrix(1 0 0 1 1377.0498 1088.8076)" class="st7 st5">Suelo</text>
	</g>
	<rect x="1377" y="1103.3" class="st3" width="395.8" height="87.7"/>
	<text transform="matrix(1 0 0 1 1377.0496 1121.1572)"><tspan x="0" y="0" class="st4 st5">Los bebes y niños suelen pasar </tspan><tspan x="0" y="28.8" class="st4 st5">en el suelo, donde los pesticidas </tspan><tspan x="0" y="57.6" class="st4 st5">pueden haber sido aplicados.</tspan></text>
</g>
<g>
	<rect x="1377" y="730" class="st3" width="317" height="37"/>
	<text transform="matrix(1 0 0 1 1377.0498 747.8076)" class="st7 st5">Cerebro y órganos</text>
	<rect x="1377" y="764" class="st3" width="431.8" height="98"/>
	<text transform="matrix(1 0 0 1 1377.0496 781.8076)"><tspan x="0" y="0" class="st4 st5">El cerebro, el sistema nervioso y los </tspan><tspan x="0" y="28.8" class="st4 st5">órganos de un bebé aún están en </tspan><tspan x="0" y="57.6" class="st4 st5">desarrollo después del nacimiento.</tspan></text>
</g>
<g>
	<path class="st2" d="M1322.9,833.5c0,52.5-25.9,98.9-65.6,127.2c-25.5,18.1-56.7,28.8-90.4,28.8c-86.2,0-156-69.8-156-156
		s69.8-156,156-156C1253,677.5,1322.9,747.3,1322.9,833.5z"/>
	<path class="st0" d="M1197.1,797.2c3.4-2.8,2.2-5.3,6.9-12.1c2.6-3.7,4.4-5,6-6.9c8-9.2,6.6-24,6-29.4c-0.5-4.7-1.6-16.6-10.4-26.8
		c-13.1-15.3-33.4-15.5-42.3-15.6c-9.7-0.1-30.7-0.3-44.1,15.6c-7.3,8.7-13.8,23.8-8.6,37.2c3.8,9.8,12.8,15.7,16.4,18.1
		c3.5,2.3,7.3,4.9,13,6c11.7,2.5,17.5-3.8,22.5,0c5,3.8,1.3,11.8,6.9,15.6c1.9,1.3,5.3,1.1,12.1,0.9
		C1190.3,799.4,1194.6,799.2,1197.1,797.2z"/>
	<path class="st0" d="M1204.4,956.3c1.2-2.2,2.1-4.6,2.7-7.1c2.1-8.2,1.6-16.7,1-25.1c-0.9-11.7-1-23.3,0.1-35
		c1.1-11.6,2.9-23.3-3.3-34c-0.8-1.4-7.6-24.4-21.6-25.1c-22.5-1.1-32.3,22.8-36.8,41c-2.4,9.7-3.7,19.6-4.7,29.5
		c-1.8,17.3-5.7,35.2-2.6,52.5c0.9,5.2,2.7,10.4,6.2,14.4c4.6,5.4,11.9,8.2,19,8.6C1179.5,977.1,1197,970.4,1204.4,956.3z"/>
</g>
<image style="overflow:visible;" width="434" height="253" xlink:href="4CC8F9A41CF99543.png"  transform="matrix(1 0 0 1 917 1041)">
</image>
<text transform="matrix(1 0 0 1 1307.2754 519.4355)" class="st6 st7 st8">BEBES Y NIÑOS</text>
<polyline class="st2" points="435.5,454.5 488.5,423.5 663.5,423.5 "/>
<line class="st2" x1="663.5" y1="486.2" x2="515.2" y2="486.2"/>
<polyline class="st2" points="663.5,549.3 541.5,549.3 517.5,570 "/>
<image style="overflow:visible;" width="1504" height="3496" xlink:href="hombre_manzana.png"  transform="matrix(-0.3077 0 0 0.3077 595.7438 272)">
</image>
<g>
	<defs>
		<polygon id="SVGID_3_" points="246.4,1269.4 279.4,1291 328.4,1291 304,1255 371,1265 401,1281 498.8,1269.4 462.9,1255 
			1419.1,1186.8 1750.2,1247.8 1691.4,1328.4 59,1376.4 68.3,1291 		"/>
	</defs>
	<clipPath id="SVGID_2_">
		<use xlink:href="#SVGID_3_"  style="overflow:visible;"/>
	</clipPath>
	<g class="st12">
		<g>
			<g>
				<g>
					<path class="st14" d="M1653,1249c0.8,0.2,0.3,0-1.8-0.3l-1.5-0.1l1.7,0.1L1653,1249z"/>
					<path class="st14" d="M1638.5,1248.1c-2.5-0.1-5.5-0.1-3.8,0c2.5,0,3.1,0.1,5.8,0.1c2.2,0.1,3.8,0.1,3.4,0.1
						c0.8,0,3.3,0.2,4.5,0.2c-2.8-0.2-6.4-0.3-10.1-0.4C1637.6,1248.1,1638.3,1248.1,1638.5,1248.1z"/>
					<path class="st14" d="M1428,1255.6l1.3-0.2C1429,1255.5,1428.5,1255.5,1428,1255.6z"/>
					<path class="st14" d="M1297.7,1264.3c1,0,1.4-0.1,1.5-0.1C1298.3,1264.3,1297.5,1264.3,1297.7,1264.3z"/>
					<path class="st14" d="M1275.4,1264.9c0.5,0,0.9,0,1.3,0C1276.2,1264.8,1275.7,1264.8,1275.4,1264.9z"/>
					<path class="st14" d="M1428,1255.6c-1.2,0.1-2.3,0.3-3.5,0.4C1424.3,1256.1,1426.3,1255.8,1428,1255.6z"/>
					<path class="st14" d="M1609.5,1247.9c0.7,0,1.3,0,1.9,0c-0.6,0-1.2,0-1.8,0C1609.5,1247.9,1609.5,1247.9,1609.5,1247.9z"/>
					<path class="st14" d="M1485.3,1250.3l1.1,0c0.3,0,0.6-0.1,0.9-0.1L1485.3,1250.3z"/>
					<path class="st14" d="M1529.5,1248.8c-1,0-1.3,0.1-1.7,0.2c0.6-0.1,1.3-0.1,2.2-0.1C1530,1248.8,1529.8,1248.8,1529.5,1248.8z"
						/>
					<path class="st14" d="M1599.6,1247.8l1.2,0C1600.5,1247.8,1599.9,1247.8,1599.6,1247.8z"/>
					<path class="st14" d="M1453.7,1252.1c-0.1,0-0.2,0-0.4,0C1453.3,1252.1,1453.5,1252.1,1453.7,1252.1z"/>
					<path class="st14" d="M220.1,1287.1C220.1,1287.1,220.1,1287.1,220.1,1287.1C219.8,1287.1,219.7,1287.1,220.1,1287.1z"/>
					<path class="st14" d="M169,1291l0.7-0.1c0.1,0,0.1,0,0.2,0L169,1291z"/>
					<path class="st14" d="M1234.6,1265.7c0.1,0,0.1,0,0.2,0C1235.9,1265.6,1235.3,1265.6,1234.6,1265.7z"/>
					<path class="st14" d="M860.5,1251.3c4.2,0.3-6.9,0.3-0.5,0.6C859.4,1251.8,865.8,1251.5,860.5,1251.3z"/>
					<path class="st14" d="M1608.3,1247.9c-0.6,0-1.2,0-1.8,0C1607.3,1248,1607.9,1248,1608.3,1247.9z"/>
					<path class="st14" d="M860,1251.9L860,1251.9l0.7,0C860.4,1251.9,860.2,1251.9,860,1251.9z"/>
					<path class="st14" d="M1140.7,1265.6c0.2,0.1,0.6,0.1,1,0.1C1141.6,1265.7,1141.4,1265.7,1140.7,1265.6z"/>
					<path class="st14" d="M1210.7,1266.5l-1.7,0C1209.6,1266.5,1210.2,1266.5,1210.7,1266.5z"/>
					<path class="st14" d="M1104.4,1264c-0.9-0.1-1.3-0.2-2.5-0.2c0.1,0,0.2,0,0.4,0.1C1102.7,1263.8,1103.3,1263.9,1104.4,1264z"/>
					<path class="st14" d="M1066.8,1259.5c0.2,0,0.5,0.1,0.7,0.1c0.4,0,0.8,0.1,1.2,0.1L1066.8,1259.5z"/>
					<path class="st14" d="M334.8,1278.3c-0.8,0-1.3,0-1.8,0C333.7,1278.4,328.1,1278.8,334.8,1278.3z"/>
					<path class="st14" d="M1609.4,1247.9c-0.2,0-0.5,0-1.1,0c0.4,0,0.9,0,1.3,0C1609.7,1247.9,1609.7,1247.9,1609.4,1247.9z"/>
					<path class="st14" d="M1102.7,1266l-6-0.6C1098.3,1265.6,1100.5,1265.8,1102.7,1266z"/>
					<path class="st14" d="M605.7,1258.6l-1.4,0.1C604.9,1258.7,605.4,1258.7,605.7,1258.6z"/>
					<path class="st14" d="M1078.8,1263.2c-1-0.2-2.2-0.4-3.3-0.6c-0.2,0-0.5,0-0.7,0L1078.8,1263.2z"/>
					<path class="st14" d="M333,1278.3C333.1,1278.3,333.1,1278.3,333,1278.3C333.1,1278.3,333.1,1278.3,333,1278.3z"/>
					<path class="st14" d="M293.6,1281.6c5.7-0.4,2.7-0.3,3.9-0.5c6.8-0.6,3.2-0.1,5.5-0.2c4.3-0.4,7.5-0.7,10.7-1
						c0.2,0,0.9,0,0.1,0.1c4.5-0.5,13.4-1,18.6-1.6c0.4,0,0.6,0,0.7,0c-0.9,0-1-0.1-0.8-0.2c2.6-0.2,4.7-0.5,5.7-0.4
						c-1.6,0.1-1.7,0.2-2.4,0.3l2.7-0.3c2.4,0-3.7,0.3-3.7,0.5c5.2-0.5,11.3-1.1,15.3-1.3c0.9,0.1-9.4,0.8-4,0.5l-6.2,0.4
						c4.8-0.1-3.8,0.3,0.6,0.2c8.2-0.6,9.1-0.7,17.3-1.3c1.8-0.2-0.6-0.1,1.2-0.3c11.6-1.1,9.2-0.3,17.6-1.1c2.2-0.3,3-0.6,9.1-0.9
						l-2.1,0.4c7.9-0.6,4.5-0.6,12.8-1.1c-1.5,0.2-6.2,0.5-5,0.5c5.4-0.2,3.8-0.4,7.9-0.7l0.9,0.1c8.4-0.7,17.7-1.5,27-2.2
						c-0.5,0.1-2.1,0.3,0.1,0.2c11.8-1,25.1-1.8,36.5-2.5l4.3-0.5c1-0.1,1.9,0,0.8,0.1c4.4-0.2,0.2-0.1,2.3-0.4
						c2.5-0.2,3.3-0.1,1.7,0.1c7.8-0.7,22.2-2,30.4-2.4l-1.6,0.2c6.4-0.4,7.2-1,13.1-1.2l-1.1,0.1c13.9-0.9,29.2-2.2,39.9-2.6
						c2-0.5,13.8-0.8,14.6-1.3c8-0.3,5.7-0.1,16.9-0.7c3-0.2,4.4-0.6,8.1-0.9l0.1,0.3l5-0.6l2.7,0.1l3.5-0.3c-1.4,0.1-2.9,0.1-2.7,0
						c2.7-0.2,6-0.4,8.6-0.5c2.6-0.1,4.6-0.1,4.7,0l12.8-1c-0.3,0.1-2.4,0.3-4.1,0.5c6.8-0.7,1.3,0.2,7.5-0.4
						c-0.8,0,0.4-0.2,0.6-0.3c3.1-0.1,10.2-0.3,15.5-0.7l-1,0.2c2.4-0.1,4.8-0.2,7.3-0.3c2.5-0.1,5-0.2,7.6-0.3
						c5.2-0.2,10.4-0.4,15.8-0.5c-3.8,0-3-0.4,0.2-0.5l1.3,0.3c2-0.2-3.3,0,0.9-0.4c4-0.1,2.7,0.3,0.4,0.4l4.8-0.2
						c0.3,0.1-0.8,0.2-1.1,0.3c2-0.2,8.4,0.1,11.2-0.3l0.3,0.1c10.7-0.2,15.5-0.4,24.2-0.6c0.2-0.3,3.6-0.3,6.2-0.5
						c6.4,0,13.5,0.1,21.2,0c5.4-0.2,1.6-0.2,4-0.4c0.4,0.2,8.1,0.1,4.1,0.4c9.2-0.1,11.8-0.2,23.5-0.5c-1.3-0.1-2.7-0.1-2-0.2
						c2.1-0.1,4.8,0.1,4.5,0.2l-0.6,0c6.6-0.2,14.1-0.1,21.4,0c7.2,0.2,14.1,0.3,19.4,0l-0.6,0l10.8-0.3c5,0-3,0.2,0.7,0.3
						c11.7-0.4,18.5,0.1,28.1-0.1c7.4,0.8,26.4,0.2,36.5,0.7l-0.6-0.2c2.6-0.2,3.1,0.1,5.1,0.2c-0.3-0.1-2.8-0.2-1.2-0.3
						c11,0.1,22.4,0.3,33.8,0.6c5.7,0.2,11.4,0.4,17.1,0.6c5.7,0.2,11.4,0.4,17,0.6c8.2,0.3,4.7-0.8,15.1,0l-3,0.2
						c4.2,0.1,8.4,0.1,12.6,0.3c4.2,0.2,8.5,0.4,12.7,0.6c4.2,0.2,8.4,0.4,12.6,0.6c4.2,0.3,8.3,0.5,12.4,0.7c-1,0-1,0.1-2.6,0
						c1.7,0.2,4.9,0.4,7.6,0.6c1.4,0.1,2.7,0.1,3.6,0.1c0.9,0,1.5,0,1.5,0c2.5,0.2,0.6,0.2,2.1,0.4c3.4,0.4,8.6,0.5,10.4,0.9
						c0.3,0.1-1,0-1.6,0c2.2,0.1,10.4,1,8.3,0.5c3,0.3,5.9,0.7,8.7,1c2.7,0.3,5.3,0.6,7.7,1c3.2,0.1,10.4,1.6,11.4,1.3
						c-0.2,0.2,2.4,0.6,5.6,1c1.6,0.2,3.3,0.4,4.9,0.5c1.6,0.1,3,0.2,4,0.2c-1.3,0,3.3,0.4,1.8,0.5c4.4,0.4,8.5,0.5,7.7,0.3
						c2,0.3,4.1,0.4,6,0.6c2,0.1,3.9,0.1,5.7,0.2c3.6,0.1,6.8,0.2,9.1,0.6c13.1,0.3,25.3,0.4,37.1,0.4c-0.4,0.4-13-0.1-12.5,0.3
						c5.6,0,10-0.1,14.4-0.1c4.4-0.1,8.8-0.1,14.3-0.1c2.9,0.1-1.6,0.2-2.6,0.2c11.2-0.2,21.6,0,31.6-0.4c0,0-1.1,0.1-2.1,0.1
						c2,0,4.6,0,4.3-0.2l-1.9,0.1c-3.1-0.2,7.8-0.6,8.1-0.8c-3.3,0.6,9.8-0.1,4.6,0.7c1.3-0.1,2.9-0.2,2.6-0.3
						c1.9,0,2.5,0.1,0.6,0.2c7-0.2,4.5-0.4,10.9-0.5c0,0.1-1.3,0.1-2,0.3c3.2-0.2,6.5-0.5,11.8-0.6c-0.3,0.1,0.3,0.1-1.3,0.2
						c9.2-0.3,15.7-0.9,25.9-1.1c-3,0.4,3.4,0,4,0.3l5.4-0.3l-2.2-0.1c4.8-0.2,9-0.5,13.1-0.6l-3.5,0.3l8.9-0.4l-5.1,0.1
						c4.8-0.4-0.5-0.3,5.8-0.5c-1.3,0.1,4.8-0.2,7.3-0.2l0,0c2.4-0.2,4.8-0.4,8.3-0.5c0.9,0-0.7,0.3-0.1,0.4
						c2.3-0.3,11.2-0.6,14.1-1c-1,0.1-1,0.3-0.7,0.3l1.9-0.3c2.2-0.1,2.5-0.1,2.2,0.1c6.6-0.3-2.1-0.2,5.8-0.5
						c-0.6,0-0.3,0.1-1.6,0.2c7.9-0.4,15.3-1,22.6-1.4c2.2,0.1-6.3,0.5-3.9,0.5c10.5-0.7,21.7-1.7,31.8-2.4l-1.9,0.1
						c1.4-0.4,7.6-0.4,12.7-1c-1.3,0.1-1.6,0.3-1.3,0.3c6.9-0.6,14.2-1.3,24.6-2.6l-1.3,0.2c2-0.2,4.7-0.6,7.4-1
						c1.4-0.3,2.7-0.5,4-0.8c0.6-0.1,1.3-0.2,1.9-0.4c0.6-0.1,1.2-0.2,1.7-0.2c1.3-0.3,3.8-0.6,2.3-0.5c6.8-0.6,13.3-1.2,19.6-1.7
						c6.3-0.5,12.4-0.9,18.5-1.1c-1.4,0.1-3.4,0.2-2.3,0.2l10.3-0.6c-0.8-0.1-1.4,0-3.5,0c1.3-0.1,4.2-0.3,6.8-0.4
						c-4.6,0.3,0,0.2,2.1,0.1c-0.3,0,0.3-0.1,0.2-0.1c5.4-0.1,0.9-0.2,8.3-0.4l-0.4,0.1c2.8-0.1,5.3-0.3,8.3-0.4
						c1.2,0.1-2.9,0.2-3.1,0.3c4.2-0.2,8.2-0.5,12-0.5c-1.8,0.1-4.3,0.2-6.1,0.3c4.1,0,4.6-0.1,7.6-0.1l-0.3,0l7.1-0.2l-1.8,0
						c5.2-0.4,10.6-0.4,17.7-0.7c-6.8,0.3-1.1,0.1-1.6,0.2c1.8,0,4.5-0.1,3.8,0c3.3-0.2,5.6-0.1,10.2-0.3c0.2,0,3.6-0.1,2.8,0
						c4.3-0.1-1,0-0.7-0.1c6.7-0.2,15.7-0.2,25.2-0.5c8.3-0.2,9.8-0.2,17.5-0.3c2.6,0-2.1,0.1-2.1,0.1c4.2,0,7.3,0,11.3-0.1
						c-0.8,0,0,0,1.2,0c3.2,0,2.1-0.1,6.3,0c-0.7,0-1.6,0-3.2,0.1c3.7,0,7.4,0,11.3,0c1,0-2.3,0-3.7,0c4.3,0,11.2,0,12.6,0l-2.8,0
						c1.6,0,0.8,0-0.4,0c-3.7,0-5.4-0.1-5.6-0.1l2.7,0c-2.8-0.1-11,0-16.5,0l2.3-0.1l-5.7,0.1c-1.2,0-2,0,0.7-0.1c-4,0-3.5,0-6.9,0
						c-0.4,0-0.2,0,0.1,0l-3.9,0c0.8,0-0.6,0,1.7-0.1c-6.9,0-11.2,0.2-13.8,0.1l0.6,0c-9.6,0.1-0.9,0.1-8.2,0.3l-4.9-0.1l-0.9,0.1
						c-1,0-3,0-2.6,0c-3.7,0.1,0.6,0-1.5,0.1c-4.8,0-13.2,0.3-14.3,0.2c-1.7,0.1,4.6,0-0.5,0.1c-1.5-0.1-5.9,0.2-10.3,0.2
						c1.3-0.1,5.5-0.2,1.1-0.1c-2.6,0.2-8.5,0.2-12.2,0.3c-0.1,0.1-2.1,0.1-4.8,0.2c-2.8,0.1-6.3,0.2-9.4,0.3
						c0.4-0.1-11.6,0.3-17.4,0.5l0.2,0c-1.1,0.2-7,0.4-11.4,0.6c0.2-0.1,0.9-0.2,3.3-0.3l-4.1,0.2c-1,0.1-2.2,0.2-4.9,0.3l1-0.2
						c-5.4,0.3-10.9,0.6-17.8,1c-0.4,0.2,5.5,0-1.8,0.6c-0.3-0.1-0.6-0.2,1.4-0.3c-0.6,0.1-2.2,0.2-3.5,0.3l2.9-0.3
						c-3.2,0.1-1.6,0.2-4.2,0.4c0-0.1-1.9,0.1-1.5,0c0.6-0.1,2.2-0.1,3.2-0.2c-2.9,0.2-6.3,0.3-7.4,0.4c0.3,0,0,0.1-2.1,0.3
						c-5.4,0.4-1.9,0-5,0.3c-1.3,0.2-4.7,0.5-4.8,0.7c-1.6,0.2-1.9,0.1-2.5,0.2c-0.7,0.1-1.9,0.3-3.2,0.5c-1.3,0.2-2.7,0.5-4,0.8
						c-2.4,0.5-4.2,0.8-2.6,0.6c0.2,0,0.5-0.1,0.7-0.1c-0.1,0-0.3,0.1-0.4,0.1c0,0,0,0,0,0l0,0c-9,1.5-18.9,2.1-28,3l0-0.1
						c-5.4,0.5-12.1,1-15.9,1.4c-1.6,0.1-3.8,0.2-3.1,0c-4.1,0.3-4.6,0.5-10.6,0.7c4.2-0.4-1.4,0,4.3-0.4c-5.4,0.3-6.6,0.3-12.4,0.8
						c2-0.3-4.1,0-6.6,0.2l3.8-0.1c-2.9,0.2-5.4,0.3-8,0.5l1.4-0.3c-11,0.3-19.9,1.6-28.3,1.5c-2.9,0.3,6-0.2,3.4,0.2
						c-5.1,0.2-10.4,0.1-12,0.2c-7,0.2-6.5,0.7-13.7,0.9c0.9,0.1,1.8,0.3-3.6,0.6c-5.1,0.2-6.3-0.1-3.1-0.3c1.2-0.1,1.8-0.1,1.8,0
						c1.6-0.1,3.8-0.2,1.8-0.2l-0.7,0.1c-2.5,0-9.5,0.3-7.9,0.1c-3.8,0.2-1.6,0.2,1.2,0.1c-6.5,0.1-10.2,0.4-16.9,0.5
						c1.1,0,2.1,0.1,1,0.1c-9.8,0.2-4.3,0.3-11,0.6c-3.8,0,1.3-0.4-5.4-0.1c-4.1,0-0.9-0.2,0.8-0.4c-6.1,0.3-11.4,0.2-14.9,0.2
						l3.2-0.2c-1.9,0.1-3.5,0.1-5.1,0.2l1.8,0.2c-1.9,0-3.5,0-3.5,0c-1.9,0.2,1.5,0.3-2.4,0.6c-2.5,0-7.7,0.3-8.6,0
						c7.9-0.1-0.9-0.2,5.8-0.4c-1.3,0.1-2.9,0.1-4.8,0.1c-0.3,0,0.3-0.1,0.8-0.1c-7.6-0.1-3.5,0.4-11.3,0.5c1-0.2-1.8-0.3-3.1-0.2
						c3.2-0.1,1.5,0.2-1.4,0.4c-5-0.1-5.5,0.2-8.1,0.2l3,0c-1,0.2-3.5,0.2-7.1,0.3c-0.3-0.1,3.2-0.1,1.9-0.2
						c-3.9,0.3-8.8-0.2-14.3,0c-2.5-0.1-0.2-0.3-2.5-0.4c-6.1,0.2-6.6-0.2-13-0.1c1.8,0.2,2.2,0.2-2.3,0.3l10.5-0.1l-6.8,0.3
						c3.2,0,6.7-0.1,8.6-0.1c-3.2,0.2-2.9,0.1-1.4,0.3c-4.4-0.3-8.6,0.2-13.7-0.1l0.2-0.5c-7.6-0.3-13.4,0.1-23.3-0.2l3.2,0.2
						c-1.3,0.2-6.1-0.1-9.2-0.1c0.3-0.2-1.7-0.3-3-0.4c0.2,0.2-7.2-0.3-8.1,0.1l-4.4-0.4c-4-0.2-6.2-0.2-8.4-0.2
						c-2.2,0-4.4,0-8.2-0.3c2.3,0-1.1-0.4,4-0.2c-2.5-0.2-4.8-0.4-4.9-0.2c-0.7-0.1-2.5-0.2-4.4-0.2c-1.9-0.1-3.8-0.2-5-0.4
						c-1.1,0-1.4,0.2-4.3-0.1c-0.3-0.1,0-0.1,0-0.1c0,0.1-4.5-0.3-2,0.1c-1.9-0.4-4.3-0.7-6.8-1c-2.5-0.3-5.2-0.7-7.8-1.1
						c-5.3-0.7-10.5-1.3-13.9-2c-1.4-0.2-2.8-0.3-4.3-0.5c-1.5-0.1-3-0.3-4.5-0.4c-3-0.3-5.9-0.5-8.4-0.7c0.3,0,0-0.1,1,0
						c-3.5-0.4-4.5-0.4-5.7-0.3c-1.2,0.1-2.5,0-6.5-0.3c-4-0.6,4.2,0.1,1.7-0.2c-1.1-0.7-9.5-0.5-14.8-1.2l1.3,0
						c-4.1-0.5-9.9-0.4-16.6-0.8c0,0,0.3,0,0-0.1c-4.6,0.1-13.2-0.2-19.6-0.4c2-0.2,2.9,0,1.7-0.3c-2.9-0.1,0.8,0.4-4.9,0.3
						c-1.9-0.2-6-0.5-6.5-0.8l5.4,0.2c-2.8-0.4-7-0.2-9.8-0.4l0.4-0.1c-8.3-0.2-8.4,0.1-17.3-0.2l0.9,0.1c-4.9,0.3-4.1-0.3-8.9-0.1
						l-1.5-0.4c-3.2,0-11.3,0.1-17,0.1c3.3-0.2,10-0.2,14.2-0.3c-3.2-0.1-10.8-0.2-12.5-0.1c1.3,0,2.9-0.1,4.2,0
						c-3.9,0.2-9,0.2-15.4,0.1c1.1-0.7-16.5-0.5-21.1-1.1c-11.2,0.1-22.3-0.3-35.3-0.4c4.6,0.6-3.8,0-3,0.6c-3,0-4.2,0-4.5,0
						l-9.2-0.4c-2.2-0.2,2.9-0.1,2.6-0.3c-6.7-0.1-2.8-0.3-7.2-0.4c0.9,0.2-2.3,0.3-6.1,0.2l5.3,0.3c-9.3,0.3-8.1-0.6-17.4-0.2
						l3-0.2c-4.8,0.1-17.8,0-22.5,0.5c-0.9-0.1-2-0.2,0.1-0.3c-11.5-0.1-25.6,0.7-34.6,0.4l0.9-0.2c-2.1,0.1-3.7,0.3-6.4,0.2
						c0.1-0.1,0.9-0.2-0.1-0.2c-1.1,0.1-5.7,0.3-8.6,0.3l2.4-0.2c-11.2,0-17.2,0.6-26.6,0.8c0-0.4-8.8-0.4-13.2-0.4l0.2-0.1
						c-13.1,0.2-22.2,0.8-34.3,1.2c-3.8-0.1-10.1,0-17.1,0.2c-6.9,0.2-14.4,0.4-20.5,0.6c1.8,0-0.3,0.3-2.4,0.5
						c-2.8,0.1-7.8,0.7-7.4,0.3l1,0c-2.2-0.2-8,0.1-12.5,0.4l-0.7,0.5c-6,0-13.7,0.6-20.8,1.1c-7.1,0.5-13.5,1.1-16.8,1
						c-2.9,0.3-6.4,0.6-9.2,0.8l0.1-0.2c-7.9,0.5-11.9,0.8-21.7,1.5l2-0.3c-5.5,0.4-6.9,1.2-12,1.5l-1.6-0.2
						c-9.7,0.7-19.4,1.2-29,2.1c0.2-0.1,0.4-0.2,2-0.3c-4.5,0.3-17.6,1.1-15.9,1.4c-0.1-0.1-2.6,0-5.7,0.3c-3.1,0.3-6.9,0.7-9.5,0.9
						l0.8-0.3c-4.4,0.6-4.5,0.7-10.7,1.2c-1.5,0.1-1.3-0.1,0.6-0.2c-4.9,0.3-3.8,0.5-9.7,0.8l2.2-0.3c-5,0.4-4.6,0.4-7.3,0.7
						c-3.1,0.3-9.5,0.7-10.2,0.6c-0.7,0.2-3.4,0.5-6.3,0.7c-0.4,0,0.7-0.2,1.2-0.2c-8.4,0.5-12.4,1.2-18.1,1.4c-0.1,0-0.5,0-1,0
						c6.6-0.5,11-0.8,11.5-0.9c0-0.2-5.4,0.2-1.1-0.3c-4.3,0.5-11.6,1.3-16.8,1.6c-0.3,0-0.5,0-0.7,0l0.5-0.1
						c-1.2,0.1-2.3,0.2-3.3,0.3c-1.7,0.1-2.7,0.2-4.3,0.3c-0.6-0.1-6.1,0.4-8.8,0.6c0.2,0.1-3.3,0.4,0,0.3c-0.4,0,0.5-0.1,2.3-0.2
						c0.4,0,0.9-0.1,1.1-0.1c-0.1,0-0.1,0-0.2,0c1.8-0.1,4-0.3,6.6-0.5c-2.1,0.3-4.3,0.5-7.3,0.6c-1.4,0.2-2.9,0.4-3.7,0.6
						c-3.7,0.1-10.7,0.5-11.7,0.4c-8.1,0.7-19.2,1.6-24.3,2.3c-2.3,0.2-2.7,0.1-3.5,0.2c1.3-0.1,2.9-0.3,3.6-0.4
						c-4.6,0.4-13.7,1.1-14.8,1.4c-5.8,0.4,3.3-0.4-4.8,0.2l1.1-0.1c-15.8,1-25.6,2.5-43.2,3.5c1.2-0.1,1.8-0.1,2.1-0.1
						c-20,1.6-41.1,3.3-60.8,4.8c-5.6,0.4-6.2,0.5-9.6,0.9l-1.2,0l-5.8,0.6c-8.3,0.7-14.3,1-24.8,2l1.4-0.1
						c-3.8,0.3-11.9,1-11.3,0.9c-0.4,0-1.2,0.1-2.7,0.2l-0.1,0l-9.2,0.8c-7.2,0.6,1.1-0.1-9.3,0.7c-3.7,0.3-8.2,0.7-9.6,0.8
						c1.6-0.1,3.9-0.3,4.1-0.3l-3.6,0.3c-0.6,0.1-3.4,0.3,5.4-0.4l6.1-0.5l2-0.1l-5.1,0.4c2.9-0.2,4.7-0.4,6.8-0.5
						c0.5,0,1.3-0.1,2.6-0.2l6-0.5c0.7,0-2.7,0.2,1.3-0.1c2.8-0.2-2.7,0.2,1.9-0.2c2.9-0.2,2.1-0.1,5.5-0.4c0.5,0-0.2,0-1.6,0.2
						c3-0.2,8-0.7,9.6-0.8c3-0.2,10.3-0.8,10-0.7c1-0.1,5.4-0.5,8.1-0.7c-5.1,0.5,10.5-0.8,9.1-0.6c3.8-0.4,13.6-1.1,20.3-1.7
						c-0.4,0-1.1,0.1-1.7,0.2c3.8-0.3,4.9-0.3,7.3-0.5c0.5-0.1,6.3-0.6,9.5-0.9c4.6-0.2-2.8,0.4-1.3,0.4c-0.2-0.1,8-0.7,6.4-0.7
						c3.5-0.2,3-0.2,4.9-0.2c0.6-0.2,3.3-0.3,6.2-0.6c5.1-0.3,1.3,0.1,6.9-0.4C298.5,1281.1,293.6,1281.6,293.6,1281.6z M427,1271.1
						L427,1271.1c-1.1,0.1-2.1,0.2-2.8,0.2C424.8,1271.2,425.6,1271.2,427,1271.1z M438.2,1270.2c-1.4,0.1-3.1,0.2-4.9,0.4
						c-0.4,0,0-0.1,1.2-0.2C433.9,1270.5,436.6,1270.3,438.2,1270.2z M414.4,1270.8c1.8-0.2,2.4-0.2,2.6-0.2
						c-0.8,0.1-1.8,0.2-3.1,0.3c-0.1,0-0.2,0-0.2,0C413.9,1270.9,414.1,1270.9,414.4,1270.8z"/>
					<path class="st14" d="M411.3,1271.3c-0.3,0-0.4,0-0.7,0.1c0.4,0,0.7,0,1.1,0c0.2,0,0.4-0.1,0.6-0.1
						C411.9,1271.3,411.6,1271.3,411.3,1271.3z"/>
					<path class="st14" d="M1429.6,1255.4l-0.2,0c0.2,0,0.4,0,0.5,0C1429.7,1255.4,1429.7,1255.4,1429.6,1255.4z"/>
					<polygon class="st14" points="593.2,1259.6 593.2,1259.5 592.2,1259.6 					"/>
					<path class="st14" d="M1491.3,1250.7c0.1,0,0.4,0,0.8,0C1492.1,1250.6,1491.7,1250.7,1491.3,1250.7z"/>
					<path class="st14" d="M1518.1,1249.7l3.8-0.1C1520.2,1249.6,1519,1249.6,1518.1,1249.7z"/>
					<path class="st14" d="M1538.6,1249.1c0.3,0,0.3,0,0.4-0.1c0,0,0,0,0,0L1538.6,1249.1z"/>
					<path class="st14" d="M1212.1,1268.1c-0.3,0-0.5,0-0.8,0C1209.4,1268.2,1210.7,1268.2,1212.1,1268.1z"/>
					<path class="st14" d="M1309.4,1264.6c-1,0.1-2,0.2-3.1,0.2C1308,1264.8,1309.4,1264.8,1309.4,1264.6z"/>
					<path class="st14" d="M1103.3,1266C1103.3,1266,1103.3,1266,1103.3,1266c-0.2,0-0.4,0-0.7-0.1L1103.3,1266z"/>
					<path class="st14" d="M1301.8,1265.1c1.7,0,3.2-0.1,4.5-0.2C1304.9,1264.9,1303.2,1265,1301.8,1265.1z"/>
					<path class="st14" d="M1627.8,1248l1,0c0,0,0,0,0.1,0L1627.8,1248z"/>
					<path class="st14" d="M1628.9,1248l1.1,0C1629.5,1248,1629.1,1248,1628.9,1248z"/>
					<path class="st14" d="M1632.3,1248l-2.3,0C1630.8,1248,1631.8,1248,1632.3,1248z"/>
					<path class="st14" d="M1600.6,1248l-0.3,0C1600.4,1248,1600.5,1248,1600.6,1248z"/>
					<path class="st14" d="M1592.3,1248.1c2,0,5,0,7.7,0l0.3,0C1599,1248,1594.2,1248,1592.3,1248.1z"/>
					<path class="st14" d="M1557.7,1248.3l6.9-0.1c-1.2,0-2.8,0,0.3-0.1C1556.3,1248.2,1566.8,1248.1,1557.7,1248.3z"/>
					<path class="st14" d="M1536.2,1248.7c3.7-0.1,0-0.1,0.2-0.1C1534,1248.7,1533.4,1248.7,1536.2,1248.7z"/>
					<path class="st14" d="M1381.3,1259.8l0.4-0.2C1378.8,1259.9,1381.6,1259.7,1381.3,1259.8z"/>
					<polygon class="st14" points="1351.7,1262.6 1354.5,1262.6 1355.8,1262.3 					"/>
					<polygon class="st14" points="1334.1,1262.3 1335.3,1262.2 1330.5,1262.5 					"/>
					<path class="st14" d="M1073.5,1260.1l0.8,0.4C1076.3,1260.7,1076.7,1260.5,1073.5,1260.1z"/>
					<path class="st14" d="M961,1253.3c-1.2-0.2-4.4-0.4-6.3-0.3C957.2,1253.1,959.7,1253.3,961,1253.3z"/>
					<polygon class="st14" points="622.9,1255.5 625.2,1255.3 620.9,1255.6 					"/>
				</g>
			</g>
		</g>
	</g>
</g>
<image style="overflow:visible;" width="1504" height="3496" xlink:href="hombre_manzana.png"  transform="matrix(-0.3078 0 0 0.3078 595.9188 272)">
</image>
<g id="TCfVcb_1_">
	
		<image style="overflow:visible;" width="1334" height="1422" id="TCfVcb" xlink:href="4CC8F9A41CF99542.png"  transform="matrix(0.206 0 0 0.206 1007.6461 692)">
	</image>
</g>
<g>
	<defs>
		<polygon id="SVGID_5_" points="558.5,1257.9 599.1,1255.7 696.3,1253.9 730.9,1252 799.8,1252.4 837.4,1250.4 911.1,1181.4 
			888.4,988.3 582.5,1004.6 483,1064.2 521.4,1245.5 		"/>
	</defs>
	<clipPath id="SVGID_4_">
		<use xlink:href="#SVGID_5_"  style="overflow:visible;"/>
	</clipPath>
	<g transform="matrix(1 -3.725290e-09 3.725290e-09 1 0 0)" class="st13">
		
			<image style="overflow:visible;" width="3500" height="2975" xlink:href="plantas.png"  transform="matrix(0.1353 -7.217676e-03 7.217676e-03 0.1353 458.7805 1003.6823)">
		</image>
	</g>
</g>
</svg>
